<svg width="83" height="82" viewBox="0 0 83 82" fill="none" xmlns="http://www.w3.org/2000/svg">
<path fill-rule="evenodd" clip-rule="evenodd" d="M35.6679 21.2239H6.43652L12.7232 32.479H14.9293H17.3124H18.4126L16.068 28.2986H17.8817L17.8766 28.2895L20.1794 28.2986H27.4209H28.5123H30.0679H30.532V48.5578V54.3461L27.4209 48.5578V48.5411L22.0196 38.9105H26.1765V34.4085L19.4947 34.4085H18.2458L17.3124 34.4085H16.5321L13.8009 34.4085L35.4642 73.1927L35.5858 73.2028L35.6679 73.2093V21.2239Z" fill="white"/>
<path fill-rule="evenodd" clip-rule="evenodd" d="M38.7919 21.2239H68.0232L61.7365 32.479H59.5305H57.1473H56.0471L58.3917 28.2986H56.578L56.5831 28.2895L54.2803 28.2986H47.0388H45.9474H44.3918H43.9277V48.5578V54.3461L47.0388 48.5578V48.5411L52.4401 38.9105H48.2833V34.4085L54.965 34.4085H56.214L57.1473 34.4085H57.9276L60.6588 34.4085L38.9955 73.1927L38.8739 73.2028L38.7919 73.2093V21.2239Z" fill="white"/>
<path fill-rule="evenodd" clip-rule="evenodd" d="M54.1988 50.451L41.0321 74.0388C51.6205 74.1054 62.5101 67.6404 68.7687 56.3803C74.9687 45.2256 74.974 32.3338 69.7742 22.8632L69.7695 22.8716C69.7621 22.84 69.7545 22.8086 69.7469 22.7773L54.3004 50.512L54.1988 50.451ZM54.3004 50.512L54.38 50.5598L69.7695 22.8716C71.5868 30.5841 68.811 49.1021 62.741 56.169C57.1287 62.7031 53.0595 63.8091 49.0102 64.9097L49.0101 64.9097L49.0099 64.9097L49.0098 64.9098L49.0097 64.9098L49.0095 64.9098L49.0094 64.9099L49.0092 64.9099L49.0091 64.91L49.009 64.91L49.0088 64.91L49.0087 64.9101L49.0086 64.9101L49.0084 64.9101C48.7211 64.9882 48.4338 65.0663 48.1461 65.1463C48.6908 62.931 49.1099 60.9834 49.4237 59.2682L54.3004 50.512Z" fill="white"/>
<path fill-rule="evenodd" clip-rule="evenodd" d="M39.9823 19.2952L68.1603 19.2952C62.4497 7.84552 50.7739 0 37.2984 0C23.8229 0 12.1471 7.8455 6.43652 19.2952L39.9823 19.2952V19.2952ZM56.3836 16.9981C53.9465 17.7928 51.8597 18.5587 50.0715 19.2951L6.45431 19.2951C12.1842 12.6292 30.6766 4.23708 40.4297 6.58485C49.3387 8.72944 52.5294 12.4757 55.7045 16.2037L55.7046 16.2039L55.7048 16.204L55.7049 16.2042L55.705 16.2044L55.7052 16.2045L55.7053 16.2047L55.7055 16.2048L55.7056 16.205L55.7057 16.2052L55.7059 16.2053L55.706 16.2055L55.7061 16.2056L55.7063 16.2058L55.7064 16.206L55.7066 16.2061L55.7067 16.2063L55.7068 16.2064C55.9318 16.4706 56.1568 16.7347 56.3836 16.9981Z" fill="white"/>
<path fill-rule="evenodd" clip-rule="evenodd" d="M4.81121 22.7152L17.9649 46.2799L17.8761 46.3331L12.902 37.402C11.6475 36.277 10.2569 34.9488 8.71216 33.3836C8.63528 33.6815 8.55703 33.978 8.47876 34.2747L8.47862 34.2752L8.47858 34.2753L8.47854 34.2754L8.4785 34.2756L8.47846 34.2757L8.47842 34.2759L8.47838 34.276L8.47834 34.2762L8.4783 34.2763L8.47826 34.2765L8.47821 34.2766L8.47817 34.2767L8.47767 34.2786L8.47767 34.2787C7.37176 38.469 6.26042 42.6798 8.90706 50.9914C11.7755 59.9993 25.8922 71.7819 33.2233 73.9685L33.2627 74.0394C22.7402 74.0204 11.9523 67.5666 5.73477 56.3804C-0.497583 45.1675 -0.470332 32.1992 4.81121 22.7152ZM33.2233 73.9685L17.8664 46.339L17.8761 46.3331L33.2761 73.9841L33.2233 73.9685Z" fill="white"/>
</svg>
