<svg width="20" height="18" viewBox="0 0 20 18" fill="none" xmlns="http://www.w3.org/2000/svg">
<path d="M7.7635 15.6315C7.54093 15.4925 7.26991 15.4104 6.98175 15.4108C6.78952 15.4108 6.60444 15.4468 6.4371 15.5125C6.18577 15.6107 5.97323 15.7739 5.82237 15.98C5.67151 16.1856 5.583 16.4359 5.58362 16.7021C5.58331 16.8793 5.62241 17.0503 5.69347 17.2048C5.80003 17.4373 5.97643 17.6336 6.19932 17.7726C6.42221 17.9122 6.69354 17.9937 6.98171 17.9937C7.17358 17.9937 7.35839 17.9576 7.52569 17.8919C7.77733 17.7938 7.98987 17.6302 8.14077 17.4244C8.29132 17.2188 8.37983 16.9682 8.37983 16.702C8.37983 16.5248 8.34042 16.3541 8.26968 16.1993C8.16311 15.9669 7.98639 15.7706 7.7635 15.6315ZM7.5012 16.9047C7.45854 16.9978 7.38651 17.078 7.29639 17.1341C7.20593 17.1902 7.09999 17.2227 6.98175 17.223C6.90261 17.2227 6.82929 17.2084 6.76241 17.1818C6.66194 17.1431 6.57471 17.0762 6.51397 16.9933C6.45323 16.9094 6.41804 16.8113 6.41772 16.702C6.41807 16.6292 6.43386 16.5618 6.46198 16.4994C6.50428 16.4066 6.57667 16.3264 6.66675 16.27C6.75721 16.2139 6.8635 16.1817 6.98175 16.1814C7.06057 16.1814 7.13358 16.196 7.20077 16.2223C7.30155 16.2613 7.38811 16.3279 7.44886 16.4114C7.50991 16.495 7.54511 16.5928 7.54511 16.702C7.54511 16.7752 7.52932 16.8426 7.5012 16.9047Z" fill="white"/>
<path d="M8.45809 10.0002C8.74238 9.92381 8.90582 9.64842 8.82246 9.38554L7.43278 4.99117C7.35008 4.72829 7.05223 4.57762 6.76762 4.65429C6.48305 4.731 6.32024 5.00607 6.40293 5.26866L7.79262 9.6636C7.87594 9.92619 8.17379 10.0772 8.45809 10.0002Z" fill="white"/>
<path d="M10.0383 9.33663C10.1217 9.59951 10.4195 9.75018 10.7038 9.67347C10.9881 9.5968 11.1515 9.32173 11.0682 9.05886L9.77926 4.98285C9.69657 4.72001 9.39872 4.56931 9.11415 4.64572C8.82954 4.72268 8.66641 4.99779 8.74942 5.26034L10.0383 9.33663Z" fill="white"/>
<path d="M12.2872 9.01938C12.3702 9.28226 12.6684 9.43293 12.9527 9.35626C13.237 9.27955 13.4004 9.00416 13.317 8.74161L12.126 4.97445C12.043 4.71157 11.7452 4.5609 11.4609 4.63789C11.1763 4.71427 11.0131 4.98967 11.0962 5.25222L12.2872 9.01938Z" fill="white"/>
<path d="M14.5291 8.6811C14.6125 8.94397 14.9103 9.09464 15.1946 9.01794C15.4789 8.94098 15.6423 8.6662 15.5593 8.40332L14.4723 4.96582C14.3896 4.70298 14.0914 4.5526 13.8068 4.62898C13.5225 4.70597 13.3594 4.98105 13.4424 5.2436L14.5291 8.6811Z" fill="white"/>
<path d="M6.59086 13.9342C6.43965 13.9342 6.29821 13.9061 6.16832 13.8557C5.97418 13.7799 5.80715 13.6522 5.69024 13.4917C5.57782 13.3374 5.51125 13.1557 5.5061 12.9564C5.51188 12.7185 5.59395 12.5121 5.73801 12.3471C5.81262 12.2621 5.90469 12.1875 6.01645 12.1257C6.12692 12.0648 6.25711 12.0165 6.40993 11.9861L15.9543 10.5512C16.5777 10.4572 17.0739 10.0169 17.1999 9.44488L18.3673 4.14375V4.14318C18.3809 4.0817 18.3874 4.01906 18.3874 3.957C18.3874 3.74276 18.3079 3.53332 18.1587 3.36443C17.9661 3.14723 17.678 3.02102 17.374 3.02102H4.15836L3.70813 1.59219V1.59248C3.50137 0.953688 2.93415 0.46975 2.22864 0.330122L0.612818 0.0105273C0.339497 -0.0437728 0.0701224 0.117359 0.0112943 0.370062C-0.0471432 0.622765 0.126919 0.871607 0.400904 0.925618L2.01606 1.24547C2.35973 1.31348 2.63629 1.54918 2.73708 1.8607L5.68957 11.2282C5.62305 11.2569 5.55875 11.2879 5.49672 11.3222C5.17852 11.4974 4.92332 11.7432 4.75215 12.0302C4.58832 12.3029 4.50145 12.6121 4.49309 12.931H4.4918V12.9797H4.49309C4.49954 13.2288 4.55704 13.4678 4.65684 13.6859C4.81676 14.0347 5.08227 14.3298 5.41692 14.5386C5.75129 14.7477 6.15797 14.8704 6.59082 14.8701H11.953C11.9514 14.8239 11.9454 14.7788 11.9454 14.7323C11.9454 14.4592 11.9759 14.1928 12.0304 13.9341H6.59086V13.9342ZM4.45305 3.95704H17.3741H17.3744L16.207 9.25842C16.1649 9.44939 15.9995 9.5962 15.7915 9.62723L6.67227 10.9985L4.45305 3.95704Z" fill="white"/>
<path d="M16.4689 11.4709C14.5187 11.4709 12.9378 12.9311 12.9378 14.7323C12.9378 16.5336 14.5187 17.9938 16.4689 17.9938C18.4194 17.9938 20 16.5336 20 14.7323C20 12.9311 18.4194 11.4709 16.4689 11.4709ZM18.4869 15.2759H17.0575V16.5959H15.8806V15.2759H14.4512V14.1887H15.8806V12.8684H17.0575V14.1887H18.4869V15.2759Z" fill="white"/>
</svg>
