<svg width="125" height="125" viewBox="0 0 125 125" fill="none" xmlns="http://www.w3.org/2000/svg">
<path d="M75.1758 63.0859C73.2717 63.0912 71.4208 63.7148 69.9016 64.8627C68.3824 66.0106 67.2771 67.6209 66.752 69.4512H57.6426C57.0332 67.3784 55.6817 65.6027 53.8461 64.4631C52.0106 63.3236 49.8196 62.9001 47.6916 63.2734C45.5636 63.6468 43.6477 64.7909 42.3097 66.4872C40.9717 68.1836 40.3054 70.3133 40.438 72.4698C40.5706 74.6262 41.4928 76.6583 43.0286 78.1779C44.5644 79.6975 46.6061 80.5982 48.7638 80.708C50.9215 80.8178 53.0441 80.129 54.7262 78.7731C56.4083 77.4172 57.5321 75.4893 57.8829 73.3574H66.5098C66.7899 75.0127 67.5375 76.5533 68.6645 77.7977C69.7914 79.042 71.2506 79.9382 72.8701 80.3804C74.4896 80.8227 76.2018 80.7927 77.8048 80.2938C79.4077 79.795 80.8346 78.8482 81.9172 77.5651C82.9998 76.282 83.6928 74.716 83.9147 73.052C84.1366 71.3879 83.8779 69.6951 83.1693 68.1732C82.4608 66.6513 81.3317 65.3637 79.9154 64.4623C78.4991 63.561 76.8546 63.0834 75.1758 63.0859ZM49.2188 76.7969C48.248 76.7969 47.299 76.509 46.4918 75.9696C45.6846 75.4302 45.0555 74.6635 44.684 73.7665C44.3126 72.8695 44.2155 71.8826 44.4051 70.9304C44.5946 69.9783 45.0623 69.1037 45.7489 68.4174C46.4355 67.731 47.3102 67.2637 48.2625 67.0745C49.2147 66.8854 50.2016 66.9829 51.0985 67.3547C51.9953 67.7264 52.7617 68.3558 53.3008 69.1633C53.8399 69.9707 54.1274 70.9198 54.127 71.8906C54.1255 73.1917 53.6078 74.439 52.6876 75.3589C51.7674 76.2787 50.5199 76.7958 49.2188 76.7969ZM75.1778 76.7969C74.2066 76.7984 73.2568 76.5118 72.4486 75.9734C71.6404 75.4349 71.0101 74.6688 70.6375 73.7719C70.2648 72.8751 70.1666 71.8879 70.3553 70.9352C70.5439 69.9825 71.011 69.1073 71.6973 68.4201C72.3836 67.733 73.2583 67.2649 74.2108 67.0751C75.1632 66.8853 76.1505 66.9824 77.0478 67.3539C77.9451 67.7255 78.712 68.3549 79.2514 69.1624C79.7908 69.97 80.0786 70.9195 80.0782 71.8906C80.0766 73.1907 79.5598 74.4371 78.6409 75.3568C77.7219 76.2764 76.4779 76.7943 75.1778 76.7969Z" fill="url(#paint0_linear_45_2462)"/>
<path d="M95.9158 29.6719H87.3865C85.1418 29.6789 82.9904 30.5701 81.3982 32.1523L80.5037 33.0469C80.0753 33.4775 79.5658 33.8189 79.0045 34.0512C78.4433 34.2836 77.8416 34.4022 77.2341 34.4004H75.1756C74.6576 34.4004 74.1608 34.6062 73.7945 34.9724C73.4282 35.3387 73.2224 35.8355 73.2224 36.3535V45.8066C73.2219 46.0722 73.1162 46.3268 72.9284 46.5146C72.7406 46.7024 72.4861 46.8081 72.2205 46.8086H50.8904C50.6248 46.8081 50.3703 46.7024 50.1825 46.5146C49.9947 46.3268 49.889 46.0722 49.8884 45.8066V38.3066H59.867C60.385 38.3066 60.8817 38.1009 61.248 37.7346C61.6143 37.3683 61.8201 36.8715 61.8201 36.3535C61.8201 35.8355 61.6143 35.3387 61.248 34.9724C60.8817 34.6062 60.385 34.4004 59.867 34.4004H47.7576C47.1502 34.4022 46.5484 34.2836 45.9872 34.0512C45.426 33.8189 44.9164 33.4775 44.4881 33.0469L43.5935 32.1523C42.0014 30.5701 39.8499 29.6789 37.6052 29.6719H29.0838C27.0942 29.6803 25.1481 30.2539 23.472 31.3259C21.796 32.3979 20.459 33.924 19.617 35.7266C16.1013 43.2441 10.8279 59.5801 14.9529 84.5254C15.4134 87.3529 16.6857 89.9857 18.615 92.1035C19.5726 93.1307 20.7329 93.9481 22.0224 94.5042C23.312 95.0602 24.7029 95.3428 26.1072 95.334C28.1089 95.3302 30.07 94.7696 31.7713 93.7148C36.4056 91.0419 39.888 86.7498 41.5486 81.6641C41.6203 81.4177 41.6428 81.1596 41.6147 80.9046C41.5867 80.6496 41.5087 80.4025 41.3851 80.1777C41.1357 79.7235 40.7161 79.387 40.2185 79.2422C39.721 79.0974 39.1863 79.1562 38.7321 79.4056C38.2779 79.6551 37.9414 80.0747 37.7966 80.5723C36.4 84.726 33.524 88.2208 29.7166 90.3906C28.4473 91.2095 26.9337 91.5636 25.4329 91.3927C23.9321 91.2218 22.5368 90.5364 21.4841 89.4531C20.0725 87.894 19.1431 85.9592 18.8084 83.8828C14.8611 59.9746 19.8377 44.4805 23.156 37.373C23.6834 36.2442 24.5205 35.2882 25.5698 34.6164C26.6192 33.9446 27.8378 33.5845 29.0838 33.5781H37.6131C38.8225 33.5813 39.9819 34.0614 40.8396 34.9141L41.7322 35.8086C42.8948 36.9731 44.3717 37.7734 45.9822 38.1113V45.8066C45.9837 47.1079 46.5014 48.3554 47.4215 49.2756C48.3416 50.1957 49.5891 50.7133 50.8904 50.7148H72.2205C73.5219 50.7138 74.7697 50.1964 75.69 49.2761C76.6102 48.3559 77.1276 47.1081 77.1287 45.8066V38.3066H77.2341C78.3547 38.3101 79.4649 38.0911 80.5002 37.6623C81.5355 37.2335 82.4754 36.6034 83.2654 35.8086L84.1599 34.9141C85.0176 34.0614 86.177 33.5813 87.3865 33.5781H95.9158C97.1615 33.5844 98.3799 33.9445 99.429 34.6163C100.478 35.2882 101.315 36.2442 101.842 37.373C105.162 44.4805 110.138 59.9746 106.191 83.8828C105.857 85.9595 104.928 87.8945 103.515 89.4531C102.463 90.5395 101.067 91.227 99.5642 91.3979C98.0616 91.5689 96.5463 91.2129 95.2771 90.3906C91.4697 88.2208 88.5937 84.726 87.197 80.5723C87.0523 80.0747 86.7158 79.6551 86.2616 79.4056C85.8074 79.1562 85.2727 79.0974 84.7752 79.2422C84.2776 79.387 83.858 79.7235 83.6085 80.1777C83.3591 80.6318 83.3003 81.1665 83.4451 81.6641C85.1057 86.7498 88.588 91.0419 93.2224 93.7148C94.9235 94.7697 96.8849 95.3297 98.8865 95.332C100.293 95.3414 101.687 95.0584 102.979 94.501C104.27 93.9436 105.432 93.1238 106.39 92.0938C108.316 89.9783 109.586 87.3489 110.045 84.5254C114.162 59.5801 108.89 43.2441 105.379 35.7266C104.537 33.9243 103.201 32.3983 101.526 31.3263C99.8503 30.2544 97.9047 29.6806 95.9158 29.6719Z" fill="url(#paint1_linear_45_2462)"/>
<path d="M65.8203 35.1973C65.6426 35.3878 65.4975 35.6062 65.3906 35.8437C65.2917 36.0795 65.2406 36.3326 65.2401 36.5883C65.2397 36.844 65.29 37.0973 65.388 37.3334C65.4861 37.5695 65.6301 37.7839 65.8116 37.964C65.993 38.1441 66.2085 38.2865 66.4453 38.3828C66.6869 38.483 66.9455 38.536 67.207 38.5391C67.461 38.5397 67.7127 38.49 67.9473 38.3927C68.182 38.2955 68.3951 38.1527 68.5742 37.9727C68.7588 37.7918 68.9056 37.5761 69.0062 37.338C69.1067 37.1 69.1591 36.8444 69.1602 36.5859C69.1529 36.065 68.9427 35.5675 68.5742 35.1992C68.2002 34.8514 67.7084 34.6578 67.1977 34.6575C66.6869 34.6571 66.1948 34.8499 65.8203 35.1973ZM91.6484 48.5977C91.8805 48.7062 92.1345 48.7597 92.3906 48.7539C92.9086 48.7509 93.4054 48.5479 93.7773 48.1875C93.9493 47.9972 94.0879 47.7793 94.1875 47.543C94.2876 47.3082 94.3407 47.056 94.3438 46.8008C94.3369 46.2836 94.1346 45.7881 93.7773 45.4141C93.6817 45.3252 93.5769 45.2467 93.4649 45.1797C93.3652 45.1023 93.2529 45.0428 93.1328 45.0039C93.0166 44.9438 92.8912 44.9035 92.7617 44.8848C92.4477 44.8316 92.1257 44.8517 91.8208 44.9435C91.5159 45.0353 91.2363 45.1964 91.0039 45.4141C90.6398 45.7836 90.4362 46.282 90.4375 46.8008C90.4337 47.0548 90.4801 47.307 90.5742 47.543C90.6807 47.7802 90.8259 47.998 91.0039 48.1875C91.1906 48.3641 91.4094 48.5033 91.6484 48.5977ZM91.0039 60.041C91.1857 60.229 91.4054 60.3761 91.6484 60.4727C91.8845 60.5661 92.1368 60.6119 92.3906 60.6074C92.6477 60.6089 92.9025 60.5596 93.1404 60.4624C93.3784 60.3652 93.5948 60.222 93.7773 60.041C94.1378 59.669 94.3407 59.1723 94.3438 58.6543C94.3422 58.3344 94.262 58.0198 94.1104 57.7381C93.9587 57.4565 93.7402 57.2164 93.474 57.0389C93.2079 56.8615 92.9022 56.7521 92.5839 56.7205C92.2656 56.6888 91.9443 56.7359 91.6484 56.8574C91.402 56.9474 91.181 57.0955 91.0039 57.2891C90.8225 57.4672 90.6788 57.6801 90.5815 57.915C90.4842 58.1499 90.4352 58.402 90.4375 58.6562C90.4353 58.9131 90.4843 59.1678 90.5815 59.4056C90.6787 59.6433 90.8223 59.8593 91.0039 60.041ZM86.4531 54.6875C86.7153 54.6847 86.9745 54.6316 87.2168 54.5313C87.4546 54.4366 87.6677 54.289 87.8398 54.0996C88.203 53.7337 88.4068 53.2391 88.4068 52.7236C88.4068 52.2081 88.203 51.7135 87.8398 51.3477C87.7531 51.2567 87.6546 51.1779 87.5469 51.1133C87.436 51.0375 87.3183 50.9721 87.1953 50.918C87.0805 50.8773 86.9631 50.8447 86.8438 50.8203C86.5932 50.7617 86.3326 50.7617 86.082 50.8203C85.9564 50.8419 85.8328 50.8746 85.7129 50.918C85.5953 50.9717 85.4834 51.0371 85.3789 51.1133C85.2648 51.1683 85.1646 51.2484 85.0859 51.3477C84.8172 51.6218 84.6347 51.9686 84.561 52.3453C84.4872 52.722 84.5254 53.1121 84.6708 53.4674C84.8162 53.8226 85.0625 54.1275 85.3793 54.3443C85.696 54.5612 86.0693 54.6805 86.4531 54.6875ZM98.3086 54.6875C98.8258 54.6791 99.3198 54.4712 99.6874 54.1073C100.055 53.7434 100.268 53.2515 100.281 52.7344C100.278 52.6034 100.265 52.4728 100.242 52.3438C100.203 52.2246 100.164 52.1094 100.125 51.9707C100.086 51.832 100.008 51.7578 99.9492 51.6387C99.8703 51.5368 99.7855 51.4397 99.6953 51.3477C99.5166 51.165 99.3044 51.0184 99.0703 50.916C98.7094 50.7777 98.3168 50.7438 97.9375 50.8184C97.8118 50.8427 97.6878 50.8753 97.5664 50.916C97.4497 50.9702 97.3385 51.0356 97.2344 51.1113C97.1202 51.1653 97.0204 51.2456 96.9434 51.3457C96.7605 51.5269 96.6159 51.7431 96.5183 51.9813C96.4206 52.2195 96.3719 52.475 96.375 52.7324C96.3719 52.9864 96.4183 53.2385 96.5117 53.4746C96.6064 53.7124 96.754 53.9255 96.9434 54.0977C97.1205 54.2815 97.3324 54.4283 97.5668 54.5295C97.8012 54.6308 98.0533 54.6845 98.3086 54.6875ZM31.4883 61.1797C32.0063 61.1797 32.5031 60.9739 32.8694 60.6076C33.2356 60.2414 33.4414 59.7446 33.4414 59.2266V55.3203H37.3477C37.8657 55.3203 38.3624 55.1145 38.7287 54.7483C39.095 54.382 39.3008 53.8852 39.3008 53.3672C39.3008 52.8492 39.095 52.3524 38.7287 51.9861C38.3624 51.6198 37.8657 51.4141 37.3477 51.4141H33.4414V47.5078C33.4414 46.9898 33.2356 46.493 32.8694 46.1267C32.5031 45.7605 32.0063 45.5547 31.4883 45.5547C30.9703 45.5547 30.4735 45.7605 30.1072 46.1267C29.7409 46.493 29.5352 46.9898 29.5352 47.5078V51.4141H25.6289C25.1109 51.4141 24.6141 51.6198 24.2478 51.9861C23.8816 52.3524 23.6758 52.8492 23.6758 53.3672C23.6758 53.8852 23.8816 54.382 24.2478 54.7483C24.6141 55.1145 25.1109 55.3203 25.6289 55.3203H29.5352V59.2266C29.5352 59.7446 29.7409 60.2414 30.1072 60.6076C30.4735 60.9739 30.9703 61.1797 31.4883 61.1797Z" fill="url(#paint2_linear_45_2462)"/>
<defs>
<linearGradient id="paint0_linear_45_2462" x1="62.2066" y1="63.0859" x2="62.2066" y2="80.7193" gradientUnits="userSpaceOnUse">
<stop stop-color="#0066FF"/>
<stop offset="1" stop-color="#6100FF"/>
</linearGradient>
<linearGradient id="paint1_linear_45_2462" x1="62.4967" y1="29.6719" x2="62.4967" y2="95.3342" gradientUnits="userSpaceOnUse">
<stop stop-color="#0066FF"/>
<stop offset="1" stop-color="#6100FF"/>
</linearGradient>
<linearGradient id="paint2_linear_45_2462" x1="61.9785" y1="34.6575" x2="61.9785" y2="61.1797" gradientUnits="userSpaceOnUse">
<stop stop-color="#0066FF"/>
<stop offset="1" stop-color="#6100FF"/>
</linearGradient>
</defs>
</svg>
