<svg width="46" height="35" viewBox="0 0 46 35" fill="none" xmlns="http://www.w3.org/2000/svg">
<path d="M46 2.917V32.0834C46 33.7386 44.7566 35 43.125 35H40.25V8.53007L23 21.1008L5.75 8.53007V35H2.875C1.24344 35 0 33.7386 0 32.0834V2.917C0 2.08868 0.307625 1.35952 0.823687 0.843275C1.09246 0.570463 1.41256 0.355259 1.76495 0.210457C2.11735 0.0656536 2.49484 -0.00579221 2.875 0.000366876H3.83381L23 14.0979L42.1662 0.000366876H43.125C43.9415 0.000366876 44.6602 0.312447 45.1763 0.843275C45.6924 1.35952 46 2.08868 46 2.917Z" fill="white"/>
</svg>
