<svg width="38" height="38" viewBox="0 0 38 38" fill="none" xmlns="http://www.w3.org/2000/svg">
<path d="M31.5 0.25C33.1576 0.25 34.7473 0.90848 35.9194 2.08058C37.0915 3.25269 37.75 4.8424 37.75 6.5V31.5C37.75 33.1576 37.0915 34.7473 35.9194 35.9194C34.7473 37.0915 33.1576 37.75 31.5 37.75H6.5C4.8424 37.75 3.25269 37.0915 2.08058 35.9194C0.90848 34.7473 0.25 33.1576 0.25 31.5V6.5C0.25 4.8424 0.90848 3.25269 2.08058 2.08058C3.25269 0.90848 4.8424 0.25 6.5 0.25H31.5ZM31.5 4.41667H6.5C5.94747 4.41667 5.41756 4.63616 5.02686 5.02686C4.63616 5.41756 4.41667 5.94747 4.41667 6.5V31.5C4.41667 32.0525 4.63616 32.5824 5.02686 32.9731C5.41756 33.3638 5.94747 33.5833 6.5 33.5833H31.5C32.0525 33.5833 32.5824 33.3638 32.9731 32.9731C33.3638 32.5824 33.5833 32.0525 33.5833 31.5V6.5C33.5833 5.94747 33.3638 5.41756 32.9731 5.02686C32.5824 4.63616 32.0525 4.41667 31.5 4.41667ZM10.6667 14.8333C11.1769 14.8334 11.6695 15.0207 12.0508 15.3598C12.4321 15.6989 12.6757 16.1661 12.7354 16.6729L12.75 16.9167V27.3333C12.7494 27.8643 12.5461 28.3751 12.1816 28.7612C11.817 29.1473 11.3188 29.3797 10.7888 29.4108C10.2587 29.4419 9.73671 29.2694 9.32952 28.9286C8.92232 28.5878 8.66063 28.1044 8.59792 27.5771L8.58333 27.3333V16.9167C8.58333 16.3641 8.80283 15.8342 9.19353 15.4435C9.58423 15.0528 10.1141 14.8333 10.6667 14.8333ZM16.9167 12.75C17.4046 12.7499 17.877 12.9211 18.2517 13.2337C18.6263 13.5462 18.8793 13.9804 18.9667 14.4604C19.3859 14.2173 19.8193 13.9996 20.2646 13.8083C21.6542 13.2146 23.7354 12.8875 25.6146 13.4771C26.6 13.7896 27.5896 14.3729 28.3229 15.3667C28.9792 16.2521 29.3333 17.3292 29.4042 18.5396L29.4167 19V27.3333C29.4161 27.8643 29.2128 28.3751 28.8482 28.7612C28.4837 29.1473 27.9855 29.3797 27.4554 29.4108C26.9253 29.4419 26.4034 29.2694 25.9962 28.9286C25.589 28.5878 25.3273 28.1044 25.2646 27.5771L25.25 27.3333V19C25.25 18.3125 25.0833 17.9917 24.975 17.8437C24.8195 17.6503 24.6052 17.5128 24.3646 17.4521C23.6396 17.2229 22.5958 17.3438 21.9021 17.6396C20.8604 18.0854 19.9062 18.7854 19.2563 19.4333L19 19.7083V27.3333C18.9994 27.8643 18.7961 28.3751 18.4316 28.7612C18.067 29.1473 17.5688 29.3797 17.0388 29.4108C16.5087 29.4419 15.9867 29.2694 15.5795 28.9286C15.1723 28.5878 14.9106 28.1044 14.8479 27.5771L14.8333 27.3333V14.8333C14.8333 14.2808 15.0528 13.7509 15.4435 13.3602C15.8342 12.9695 16.3641 12.75 16.9167 12.75ZM10.6667 8.58333C11.2192 8.58333 11.7491 8.80283 12.1398 9.19353C12.5305 9.58423 12.75 10.1141 12.75 10.6667C12.75 11.2192 12.5305 11.7491 12.1398 12.1398C11.7491 12.5305 11.2192 12.75 10.6667 12.75C10.1141 12.75 9.58423 12.5305 9.19353 12.1398C8.80283 11.7491 8.58333 11.2192 8.58333 10.6667C8.58333 10.1141 8.80283 9.58423 9.19353 9.19353C9.58423 8.80283 10.1141 8.58333 10.6667 8.58333Z" fill="white"/>
</svg>
