<svg width="535" height="359" viewBox="0 0 535 359" fill="none" xmlns="http://www.w3.org/2000/svg">
<path d="M367.471 180.257L504.593 59.483V299.653L367.471 180.257ZM190.78 200.71L238.932 243.085C246.489 249.594 256.343 253.526 267.11 253.526H267.489H267.779C278.568 253.526 288.422 249.571 296.068 243.017L296.001 243.062L344.153 200.687L490.526 328.128H44.4737L190.78 200.71ZM44.2731 30.8489H490.794L276.317 219.694C273.905 221.628 270.92 222.679 267.846 222.677H267.533H267.244C264.158 222.681 261.163 221.621 258.75 219.671L258.772 219.694L44.2731 30.8489ZM30.4294 59.4604L167.529 180.235L30.4294 299.562V59.4604ZM511.949 4.29399C506.599 1.582 500.313 0 493.647 0H41.4419C34.9807 0.00156471 28.6082 1.52574 22.8276 4.45219L23.0728 4.33919C16.1526 7.79949 10.3248 13.1527 6.24759 19.7941C2.17042 26.4354 0.00640574 34.1003 0 41.9229L0 317.009C0.0118018 328.142 4.37943 338.816 12.1446 346.688C19.9097 354.56 30.4381 358.988 41.4196 359H493.58C504.562 358.988 515.09 354.56 522.855 346.688C530.621 338.816 534.988 328.142 535 317.009V41.9229C535 25.4927 525.659 11.2548 512.061 4.40699L511.816 4.29399H511.949Z" fill="url(#paint0_linear_199_2152)"/>
<defs>
<linearGradient id="paint0_linear_199_2152" x1="267.5" y1="0" x2="267.5" y2="359" gradientUnits="userSpaceOnUse">
<stop stop-color="#0166FF"/>
<stop offset="0.51" stop-color="#3A2BFF"/>
<stop offset="1" stop-color="#5A00FF"/>
</linearGradient>
</defs>
</svg>
