<svg width="79" height="92" viewBox="0 0 79 92" fill="none" xmlns="http://www.w3.org/2000/svg">
<path d="M16.6778 52.5714L39.5 65.7143L62.3222 52.5714L43.8889 41.9476V56.9524H35.1111V41.9476L16.6778 52.5714ZM35.1111 31.8714V30.0095C31.8926 29.0603 29.2593 27.2524 27.2111 24.5859C25.163 21.9194 24.1389 18.8352 24.1389 15.3333C24.1389 11.0984 25.6384 7.48413 28.6375 4.49048C31.6366 1.49683 35.2574 0 39.5 0C43.7426 0 47.3634 1.49683 50.3625 4.49048C53.3616 7.48413 54.8611 11.0984 54.8611 15.3333C54.8611 18.8381 53.837 21.9237 51.7889 24.5903C49.7407 27.2568 47.1074 29.0632 43.8889 30.0095V31.8714L74.6111 49.5048C76.0009 50.3079 77.0806 51.3857 77.8501 52.7379C78.6196 54.0902 79.0029 55.568 79 57.1714V65.4952C79 67.1016 78.6167 68.5809 77.8501 69.9331C77.0835 71.2854 76.0038 72.3616 74.6111 73.1619L43.8889 90.7952C42.4991 91.5984 41.0361 92 39.5 92C37.9639 92 36.5009 91.5984 35.1111 90.7952L4.38889 73.1619C2.99907 72.3587 1.92087 71.2825 1.15428 69.9331C0.387685 68.5838 0.00292593 67.1045 0 65.4952V57.1714C0 55.5651 0.384759 54.0872 1.15428 52.7379C1.9238 51.3886 3.002 50.3109 4.38889 49.5048L35.1111 31.8714ZM35.1111 73.2714L8.77778 58.1571V65.4952L39.5 83.2381L70.2222 65.4952V58.1571L43.8889 73.2714C42.4991 74.0746 41.0361 74.4762 39.5 74.4762C37.9639 74.4762 36.5009 74.0746 35.1111 73.2714ZM39.5 21.9048C41.3287 21.9048 42.8838 21.2666 44.1654 19.9903C45.4469 18.714 46.0863 17.1616 46.0833 15.3333C46.0833 13.5079 45.444 11.9571 44.1654 10.6808C42.8868 9.40444 41.3316 8.76482 39.5 8.7619C37.6713 8.7619 36.1176 9.40152 34.839 10.6808C33.5604 11.96 32.9196 13.5109 32.9167 15.3333C32.9167 17.1587 33.5574 18.711 34.839 19.9903C36.1205 21.2695 37.6742 21.9077 39.5 21.9048Z" fill="url(#paint0_linear_45_2461)"/>
<defs>
<linearGradient id="paint0_linear_45_2461" x1="39.5" y1="0" x2="39.5" y2="92" gradientUnits="userSpaceOnUse">
<stop stop-color="#0066FF"/>
<stop offset="1" stop-color="#6100FF"/>
</linearGradient>
</defs>
</svg>
